<svg width="486" height="283" viewBox="0 0 486 283" fill="none" xmlns="http://www.w3.org/2000/svg">
<g filter="url(#filter0_d)">
<g clip-path="url(#clip0)">
<rect x="40" y="32" width="406" height="203" rx="15.8904" fill="white"/>
<path fill-rule="evenodd" clip-rule="evenodd" d="M231.542 87.825H250.793V130.567H231.542V87.825ZM205.343 116.32L227.357 103.593V125.851L224.594 127.448V147.094L241.586 156.917L258.578 147.094V127.448L254.978 125.367V103.109L277.829 116.32V158.223L241.586 179.175L205.343 158.223V116.32ZM169.067 155.909C166.221 156.974 162.931 157.506 159.196 157.506C154.483 157.506 150.481 156.619 147.191 154.844C143.989 153.069 141.633 150.406 140.121 146.856L193.211 136.606C193.211 129.151 191.521 122.717 188.142 117.303C184.852 111.8 180.405 107.629 174.803 104.789C169.2 101.86 162.975 100.396 156.128 100.396C148.836 100.396 142.255 101.994 136.386 105.189C130.605 108.295 126.026 112.688 122.646 118.368C119.356 123.959 117.711 130.26 117.711 137.271C117.711 144.371 119.401 150.717 122.78 156.308C126.159 161.899 130.961 166.292 137.186 169.487C143.411 172.593 150.57 174.147 158.662 174.147C171.646 174.147 181.517 170.286 188.275 162.565L177.204 150.584C174.714 152.98 172.001 154.755 169.067 155.909ZM143.322 121.163C146.613 117.791 150.881 116.105 156.128 116.105C160.396 116.105 164.042 117.214 167.066 119.433C170.089 121.652 172.09 124.625 173.069 128.352L138.12 135.141C138.298 129.195 140.032 124.536 143.322 121.163ZM359.702 108.384C354.277 103.059 347.118 100.396 338.225 100.396C333.334 100.396 328.844 101.239 324.753 102.925C320.662 104.523 317.239 106.83 314.482 109.848V101.461H294.606V173.082H315.415V137.671C315.415 131.281 316.972 126.488 320.084 123.293C323.197 120.01 327.376 118.368 332.623 118.368C337.336 118.368 340.938 119.788 343.428 122.628C345.918 125.379 347.163 129.595 347.163 135.274V173.082H367.972V132.08C367.972 121.607 365.215 113.708 359.702 108.384Z" fill="url(#paint0_linear)"/>
<path fill-rule="evenodd" clip-rule="evenodd" d="M108.663 261.531C99.2205 263.135 89.6279 266.613 82.7333 273.261C82.2438 273.733 81.7469 274.2 81.2426 274.662C49.0831 304.131 -0.876454 301.949 -30.3452 269.79C-59.814 237.63 -57.6327 187.671 -25.4732 158.202C-12.3942 146.217 3.62886 139.468 20.0204 137.84C32.2981 136.621 43.8204 129.04 51.2844 119.216C53.3117 116.548 55.6054 114.022 58.1637 111.678C81.2178 90.553 117.032 92.1167 138.157 115.171C154.14 132.613 157.136 157.36 147.663 177.523C142.481 188.551 141.564 202.276 143.221 214.348C145.033 227.552 140.549 241.399 129.978 251.085C123.79 256.755 116.364 260.223 108.663 261.531Z" fill="url(#paint1_linear)"/>
<path fill-rule="evenodd" clip-rule="evenodd" d="M457.886 120.383C448.444 121.987 438.851 125.465 431.957 132.112C431.467 132.584 430.97 133.052 430.466 133.514C398.307 162.982 348.347 160.801 318.878 128.642C289.409 96.482 291.591 46.5224 323.75 17.0537C336.829 5.06901 352.852 -1.68083 369.244 -3.30829C381.521 -4.52732 393.044 -12.108 400.508 -21.9323C402.535 -24.6008 404.829 -27.1259 407.387 -29.4702C430.441 -50.5954 466.256 -49.0317 487.381 -25.9776C503.364 -8.53526 506.359 16.2113 496.886 36.3742C491.705 47.4022 490.788 61.1277 492.444 73.199C494.256 86.4037 489.772 100.25 479.202 109.936C473.014 115.606 465.588 119.075 457.886 120.383Z" fill="url(#paint2_linear)"/>
<path fill-rule="evenodd" clip-rule="evenodd" d="M317.47 127.063C310.741 119.322 305.783 110.619 302.571 101.461H314.482V109.848C317.239 106.83 320.662 104.523 324.753 102.925C328.844 101.239 333.334 100.396 338.226 100.396C347.118 100.396 354.277 103.059 359.702 108.384C365.215 113.708 367.972 121.607 367.972 132.08V153.734C360.866 152.91 353.859 151.124 347.163 148.386V135.275C347.163 129.595 345.918 125.379 343.428 122.628C340.938 119.788 337.336 118.368 332.623 118.368C327.376 118.368 323.197 120.01 320.084 123.293C319.036 124.369 318.165 125.626 317.47 127.063Z" fill="white"/>
<path fill-rule="evenodd" clip-rule="evenodd" d="M149.403 173.402C151.403 168.083 152.581 162.515 152.925 156.898C150.82 156.455 148.908 155.77 147.191 154.844C143.989 153.069 141.633 150.406 140.121 146.856L152.331 144.499C151.711 140.588 150.678 136.727 149.231 132.983L138.12 135.141C138.294 129.326 139.956 124.742 143.107 121.388C141.625 119.233 139.975 117.155 138.157 115.171C135.952 112.764 133.587 110.592 131.092 108.655C127.734 111.311 124.919 114.548 122.646 118.368C119.356 123.959 117.711 130.26 117.711 137.271C117.711 144.371 119.401 150.717 122.78 156.308C126.159 161.899 130.961 166.292 137.186 169.487C140.922 171.351 144.994 172.656 149.403 173.402Z" fill="white"/>
</g>
</g>
<defs>
<filter id="filter0_d" x="0.273968" y="0.219174" width="485.452" height="282.452" filterUnits="userSpaceOnUse" color-interpolation-filters="sRGB">
<feFlood flood-opacity="0" result="BackgroundImageFix"/>
<feColorMatrix in="SourceAlpha" type="matrix" values="0 0 0 0 0 0 0 0 0 0 0 0 0 0 0 0 0 0 127 0"/>
<feOffset dy="7.94521"/>
<feGaussianBlur stdDeviation="19.863"/>
<feColorMatrix type="matrix" values="0 0 0 0 0 0 0 0 0 0 0 0 0 0 0 0 0 0 0.15 0"/>
<feBlend mode="normal" in2="BackgroundImageFix" result="effect1_dropShadow"/>
<feBlend mode="normal" in="SourceGraphic" in2="effect1_dropShadow" result="shape"/>
</filter>
<linearGradient id="paint0_linear" x1="338.259" y1="107.52" x2="135.687" y2="147.648" gradientUnits="userSpaceOnUse">
<stop stop-color="#1FC9FF"/>
<stop offset="1" stop-color="#1FFF93"/>
</linearGradient>
<linearGradient id="paint1_linear" x1="0.601676" y1="134.309" x2="117.818" y2="262.228" gradientUnits="userSpaceOnUse">
<stop stop-color="#1AEF89"/>
<stop offset="1" stop-color="#0DB0E3"/>
</linearGradient>
<linearGradient id="paint2_linear" x1="349.825" y1="-6.83955" x2="467.041" y2="121.079" gradientUnits="userSpaceOnUse">
<stop stop-color="#1AEF89"/>
<stop offset="1" stop-color="#0DB0E3"/>
</linearGradient>
<clipPath id="clip0">
<rect x="40" y="32" width="406" height="203" rx="15.8904" fill="white"/>
</clipPath>
</defs>
</svg>
