<svg width="103" height="29" viewBox="0 0 103 29" fill="none" xmlns="http://www.w3.org/2000/svg">
<path d="M1.92003 21.136C2.20803 21.264 2.81603 21.488 3.74403 21.808C4.67203 22.128 5.74403 22.288 6.96003 22.288C8.36803 22.288 9.40803 22.032 10.08 21.52C10.752 21.008 11.2 20.192 11.424 19.072C11.648 17.952 11.76 16.496 11.76 14.704V0.976013H18.624V14.704C18.624 16.784 18.496 18.672 18.24 20.368C17.984 22.032 17.456 23.472 16.656 24.688C15.888 25.872 14.72 26.8 13.152 27.472C11.616 28.112 9.55203 28.432 6.96003 28.432C4.40003 28.432 2.20803 27.872 0.384033 26.752L1.92003 21.136Z" fill="#1D1823"/>
<path d="M20.5279 28L32.1919 0.976013H37.8079L49.3759 28H42.0799L39.6799 22.336H30.2239L27.9199 28H20.5279ZM34.9759 9.32801L31.7119 16.336H38.1439L34.9759 9.32801Z" fill="#1D1823"/>
<path d="M52.2417 28V0.976013H59.1537V12.544L70.8657 0.976013H78.0657L66.7377 13.024L78.7857 28H71.4417L62.5617 17.008L59.1537 19.936V28H52.2417Z" fill="#1D1823"/>
<path d="M102.614 22V28H81.3979V0.976013H102.23V6.97601H88.3099V11.44H100.262V17.056H88.3099V22H102.614Z" fill="#1D1823"/>
</svg>
