<svg width="100" height="100" viewBox="0 0 100 100" fill="none" xmlns="http://www.w3.org/2000/svg">
<path d="M10 50.5C10 47.039 12.8296 44.2333 16.32 44.2333H82.68C86.1704 44.2333 89 47.039 89 50.5C89 53.961 86.1704 56.7667 82.68 56.7667H16.32C12.8296 56.7667 10 53.961 10 50.5Z" fill="black"/>
<path d="M17.9 39.5333C17.9 32.6114 23.5591 27 30.54 27H68.46C75.4409 27 81.1 32.6114 81.1 39.5333H17.9Z" fill="black"/>
<path d="M17.9 61.4667H81.1C81.1 68.3886 75.4409 74 68.46 74H30.54C23.5591 74 17.9 68.3886 17.9 61.4667Z" fill="black"/>
</svg>
